<svg width="26" height="22" fill="none" xmlns="http://www.w3.org/2000/svg"><path d="M18.833 13.167a.583.583 0 1 1 0-1.167c1.608 0 3.215.13 4.822.39a2.333 2.333 0 0 1 1.871 1.665l.363 1.274c.013.046.024.092.035.138.27 1.232-.532 2.443-1.751 2.773-1.171.318-2.495.56-3.553.676a.583.583 0 1 1-.128-1.16c1-.11 2.265-.34 3.376-.642.637-.172 1.049-.794.916-1.396a1.177 1.177 0 0 0-.017-.07l-.363-1.273a1.167 1.167 0 0 0-.935-.832 28.924 28.924 0 0 0-4.636-.376zM16.5 7.333a2.335 2.335 0 0 0 2.333 2.334 2.335 2.335 0 0 0 2.334-2.334A2.335 2.335 0 0 0 18.833 5 2.335 2.335 0 0 0 16.5 7.333zm-1.167 0c0-1.932 1.57-3.5 3.5-3.5 1.932 0 3.5 1.57 3.5 3.5 0 1.932-1.569 3.5-3.5 3.5-1.932 0-3.5-1.569-3.5-3.5zM9.5 20.167c3.335 0 5.755-.312 7.238-.918.517-.211.812-.76.703-1.308l-.454-2.274a2.917 2.917 0 0 0-2.613-2.335c-1.29-.11-2.916-.165-4.874-.165-1.958 0-3.584.055-4.874.165a2.917 2.917 0 0 0-2.613 2.335l-.454 2.274c-.11.548.185 1.097.703 1.308 1.483.606 3.903.918 7.238.918zm0 1.166c-3.474 0-6.026-.328-7.68-1.004a2.333 2.333 0 0 1-1.405-2.617l.454-2.273a4.083 4.083 0 0 1 3.658-3.27C5.854 12.056 7.51 12 9.5 12c1.989 0 3.646.056 4.973.17a4.083 4.083 0 0 1 3.658 3.269l.454 2.273a2.333 2.333 0 0 1-1.406 2.617c-1.653.675-4.205 1.004-7.679 1.004zM6 5c0 1.93 1.569 3.5 3.5 3.5C11.43 8.5 13 6.931 13 5c0-1.93-1.569-3.5-3.5-3.5C7.57 1.5 6 3.069 6 5zM4.833 5A4.67 4.67 0 0 1 9.5.333 4.67 4.67 0 0 1 14.167 5 4.67 4.67 0 0 1 9.5 9.667 4.67 4.67 0 0 1 4.833 5z" fill="#A4A8BB"/></svg>