<svg width="28" height="28" fill="none" xmlns="http://www.w3.org/2000/svg"><path d="M14 0a2.917 2.917 0 0 1 2.91 2.714c.674.186 1.19.353 1.554.504.37.153.854.4 1.459.744a2.917 2.917 0 0 1 4.114 4.116c.354.624.608 1.123.764 1.503.145.354.306.855.486 1.51a2.917 2.917 0 0 1 0 5.819 13.99 13.99 0 0 1-.477 1.487c-.157.386-.414.892-.773 1.525a2.917 2.917 0 0 1-4.114 4.116 13.96 13.96 0 0 1-1.413.725c-.373.156-.905.33-1.6.523a2.917 2.917 0 0 1-5.82 0c-.662-.182-1.17-.346-1.527-.493-.376-.154-.869-.406-1.485-.755a2.917 2.917 0 0 1-4.116-4.115 13.895 13.895 0 0 1-.704-1.363c-.163-.384-.343-.932-.543-1.65a2.917 2.917 0 0 1-.001-5.82c.187-.677.355-1.196.507-1.56.152-.368.399-.85.741-1.453a2.917 2.917 0 0 1 4.115-4.115c.568-.325 1.023-.56 1.37-.707.383-.162.928-.341 1.643-.54A2.917 2.917 0 0 1 14 0zm-1.75 2.917a.904.904 0 0 1-.667.872c-.76.207-1.323.389-1.68.54-.328.14-.801.387-1.41.74A.904.904 0 0 1 7.4 4.925 1.75 1.75 0 0 0 4.925 7.4c.29.29.349.737.145 1.091-.37.642-.628 1.14-.772 1.486-.142.342-.313.88-.509 1.605a.904.904 0 0 1-.872.668 1.75 1.75 0 1 0 0 3.5c.408 0 .765.273.872.666.208.764.39 1.33.543 1.688.139.326.385.797.737 1.404a.904.904 0 0 1-.144 1.092A1.75 1.75 0 1 0 7.4 23.074a.905.905 0 0 1 1.091-.144c.655.377 1.163.639 1.516.784.336.139.863.306 1.575.497a.903.903 0 0 1 .668.872 1.75 1.75 0 1 0 3.5 0c0-.408.273-.765.667-.872.743-.201 1.292-.377 1.642-.524.337-.142.823-.394 1.45-.756a.904.904 0 0 1 1.09.143 1.75 1.75 0 1 0 2.476-2.474.905.905 0 0 1-.145-1.09c.385-.672.652-1.192.799-1.553.134-.329.296-.844.482-1.538a.903.903 0 0 1 .872-.669 1.75 1.75 0 1 0 0-3.5.903.903 0 0 1-.872-.669c-.19-.703-.354-1.225-.49-1.558-.146-.356-.41-.87-.791-1.532a.905.905 0 0 1 .145-1.09A1.75 1.75 0 1 0 20.6 4.924a.904.904 0 0 1-1.091.145c-.645-.372-1.144-.63-1.492-.774-.34-.141-.876-.312-1.6-.507a.904.904 0 0 1-.667-.872 1.75 1.75 0 1 0-3.5 0zM14 21a7 7 0 1 1 0-14 7 7 0 0 1 0 14zm0-1.167a5.833 5.833 0 1 0 0-11.666 5.833 5.833 0 0 0 0 11.666z" fill="#A4A8BB"/></svg>