<svg width="26" height="26" fill="none" xmlns="http://www.w3.org/2000/svg"><path d="M5.06 21.857a.583.583 0 0 1-1.145-.228l.454-2.274a4.083 4.083 0 0 1 3.658-3.27c1.327-.112 2.984-.168 4.973-.168 1.989 0 3.646.056 4.973.169a4.083 4.083 0 0 1 3.659 3.27l.453 2.273a.583.583 0 0 1-1.144.228l-.454-2.273a2.917 2.917 0 0 0-2.613-2.336c-1.29-.11-2.916-.165-4.874-.165-1.958 0-3.584.055-4.874.165a2.917 2.917 0 0 0-2.613 2.336l-.454 2.273zM9.5 9.5c0 1.93 1.569 3.5 3.5 3.5 1.93 0 3.5-1.569 3.5-3.5C16.5 7.57 14.931 6 13 6c-1.93 0-3.5 1.569-3.5 3.5zm-1.167 0A4.67 4.67 0 0 1 13 4.833 4.67 4.67 0 0 1 17.667 9.5 4.67 4.67 0 0 1 13 14.167 4.67 4.67 0 0 1 8.333 9.5zm-7 3.5c0 6.444 5.223 11.667 11.667 11.667S24.667 19.444 24.667 13 19.444 1.333 13 1.333 1.333 6.556 1.333 13zM.167 13C.167 5.912 5.91.167 13 .167 20.088.167 25.833 5.91 25.833 13c0 7.088-5.744 12.833-12.833 12.833C5.912 25.833.167 20.09.167 13z" fill="#fff"/></svg>